<svg xmlns="http://www.w3.org/2000/svg" width="32" height="32" viewBox="0 0 32 32" fill="none">
<circle cx="16" cy="16" r="16" fill="black"/>
<path d="M23.634 20.0223L21.3988 18.8195C19.9801 16.5075 20.8251 13.5521 23.2868 12.2046L23.3186 12.1874C23.3194 12.1872 23.32 12.1867 23.3211 12.1863L23.3213 12.1861L23.6338 12.0178C23.6992 11.9829 23.7213 11.905 23.6837 11.8441C23.6739 11.8287 23.662 11.8158 23.6474 11.8059C23.605 11.7757 23.5457 11.7707 23.4964 11.7971L23.1836 11.9654C23.183 11.966 23.1826 11.9662 23.182 11.9664L23.1504 11.9835C20.6674 13.2975 17.4992 12.502 16.0609 10.1999L16.0607 7.79392C16.0607 7.72362 15.9999 7.66675 15.9245 7.66675C15.8867 7.66675 15.8526 7.68097 15.8282 7.70434C15.8029 7.72732 15.7872 7.75926 15.7872 7.7947L15.787 10.2007C15.0889 11.3182 13.9673 12.1181 12.6265 12.4531C11.3004 12.7844 9.91726 12.6214 8.72254 11.9966L8.66593 11.9664C8.6653 11.9662 8.66488 11.9656 8.66426 11.9654C8.66405 11.9654 8.66405 11.9654 8.66405 11.9654L8.35132 11.7971C8.28593 11.7619 8.20258 11.7827 8.16498 11.8435C8.16456 11.8439 8.16456 11.8441 8.16456 11.8445C8.16435 11.8447 8.16414 11.8447 8.16414 11.8449C8.12612 11.9058 8.14868 11.9833 8.21386 12.0188L8.58654 12.2194C11.0282 13.5735 11.8628 16.5159 10.4489 18.8195L8.21344 20.0223C8.14827 20.0577 8.12591 20.1356 8.16373 20.1966C8.16373 20.1966 8.16393 20.1966 8.16414 20.197C8.16414 20.197 8.16456 20.197 8.16456 20.1974C8.16978 20.2061 8.17647 20.2137 8.18378 20.2205C8.1867 20.2233 8.18963 20.2262 8.19276 20.2285C8.19757 20.2324 8.20258 20.2357 8.2078 20.2392C8.21198 20.2416 8.21574 20.2441 8.22013 20.2461C8.22493 20.2484 8.22995 20.2502 8.23517 20.2517C8.24436 20.2552 8.25376 20.257 8.26379 20.2585C8.26755 20.2585 8.27089 20.2593 8.27465 20.2597C8.27737 20.2597 8.27988 20.2605 8.28259 20.2605C8.28656 20.2605 8.29053 20.2593 8.2945 20.2593C8.29763 20.2585 8.30056 20.2585 8.30348 20.2581C8.31058 20.257 8.31748 20.2558 8.32479 20.2537C8.32563 20.2533 8.32667 20.2529 8.32771 20.2525C8.33544 20.2502 8.34338 20.2476 8.3509 20.2433L10.586 19.0401C13.4559 19.0508 15.7876 21.23 15.7876 23.9083V24.245C15.7876 24.3153 15.8486 24.3724 15.9238 24.3724C15.9993 24.3724 16.0603 24.3153 16.0603 24.245V23.9083C16.0603 21.23 18.3918 19.0508 21.2619 19.0401L23.497 20.2433C23.5047 20.2474 23.5127 20.2502 23.5208 20.2529C23.5216 20.2529 23.5223 20.2533 23.5227 20.2537C23.53 20.256 23.5373 20.2572 23.5446 20.2581C23.5473 20.2585 23.5498 20.2585 23.5526 20.2593C23.5565 20.2593 23.5607 20.2605 23.5651 20.2605C23.568 20.2605 23.5705 20.2597 23.5732 20.2597C23.5764 20.2593 23.5791 20.2585 23.5822 20.2585C23.5933 20.257 23.6035 20.2546 23.6136 20.2509C23.6184 20.2494 23.6227 20.2482 23.6271 20.2461C23.6315 20.2441 23.6357 20.2412 23.6399 20.2389C23.6449 20.2357 23.6495 20.2324 23.6541 20.2289C23.6576 20.2262 23.6606 20.2233 23.6635 20.2205C23.6704 20.2137 23.6766 20.2065 23.6821 20.1985C23.6825 20.1978 23.6831 20.1974 23.6831 20.197C23.6833 20.197 23.6833 20.197 23.6833 20.1966C23.7218 20.1356 23.6994 20.0575 23.634 20.0223ZM20.9611 18.584L20.1466 18.1454L19.2544 17.6653C18.8558 17.0049 18.7515 16.2397 18.9623 15.5063C19.1727 14.774 19.6722 14.1607 20.3703 13.7745L20.4033 13.7564C20.4038 13.7564 20.404 13.7564 20.404 13.7564L21.8396 12.9834C20.3969 14.4867 20.0058 16.6958 20.9611 18.584ZM18.8343 17.439L16.1985 16.0198L19.2498 14.3775C18.9989 14.6918 18.8107 15.0504 18.6987 15.4404C18.5059 16.1116 18.5558 16.8072 18.8343 17.439ZM16.0617 15.7986L16.0615 12.9614C16.7112 13.7445 17.7075 14.1759 18.7269 14.1759C18.857 14.1759 18.9876 14.1681 19.1178 14.1539L16.0617 15.7986ZM15.7866 15.7986L12.7322 14.1547C12.8617 14.1689 12.9917 14.1767 13.1214 14.1767C14.1406 14.1767 15.1367 13.7451 15.7866 12.9624V15.7986ZM15.6491 16.0206L13.0134 17.4394C13.4669 16.4074 13.2871 15.2432 12.596 14.3771L15.6491 16.0206ZM15.7878 16.2405V19.5315C15.3295 18.5386 14.337 17.8099 13.15 17.6601L15.7878 16.2405ZM16.0605 16.2405L18.6983 17.6601C17.5111 17.81 16.5186 18.5388 16.0605 19.5315V16.2405ZM20.5826 12.8716C20.9557 12.8716 21.3305 12.8356 21.7013 12.7635L20.2325 13.5538C19.5253 13.9237 18.7058 14.0201 17.9212 13.8242C17.1344 13.6277 16.4758 13.1608 16.0617 12.5086L16.0613 10.6728C17.1135 12.0869 18.8268 12.8716 20.5826 12.8716ZM11.2657 12.8755C11.7431 12.8755 12.2238 12.8169 12.6971 12.6987C13.966 12.3816 15.0475 11.6684 15.787 10.6726L15.7866 12.5092C14.9372 13.8464 13.0965 14.313 11.6388 13.5663L10.156 12.768C10.5208 12.8393 10.8922 12.8755 11.2657 12.8755ZM10.01 12.9852L11.5047 13.7897C12.1882 14.1767 12.6779 14.7837 12.8858 15.5063C13.0965 16.2397 12.9923 17.0049 12.5937 17.6653L11.7454 18.1219L10.887 18.584C11.8423 16.6966 11.4514 14.4885 10.01 12.9852ZM11.0236 18.8043L11.9862 18.2858L12.7303 17.8856C14.4193 17.9035 15.7878 19.1891 15.7878 20.7678V22.3167C15.1133 20.3988 13.2562 18.9774 11.0236 18.8043ZM16.0605 22.3167V20.7678C16.0605 19.1893 17.4288 17.9035 19.1178 17.8856L19.9057 18.3102L20.8241 18.8043C18.5919 18.9774 16.7346 20.3988 16.0605 22.3167Z" fill="url(#paint0_linear_270_19)"/>
<path d="M20.2298 14.3195C19.786 14.4606 19.3521 14.4606 18.9414 14.4098C18.9157 14.4061 18.9144 14.3327 18.9402 14.3289C19.2086 14.2725 19.4722 14.1954 19.7309 14.0995C20.0741 13.9716 20.3745 12.8731 20.3598 12.858C20.3475 12.8449 20.3328 12.8374 20.2985 12.8674C19.851 13.2474 19.395 13.4806 18.9537 13.6424C18.9279 13.6518 18.9181 13.5803 18.9426 13.5634C19.2417 13.3508 19.5311 13.1176 19.8118 12.8599C20.1342 12.5646 20.2899 11.3326 20.274 11.3232C20.2605 11.3157 20.2458 11.3176 20.2139 11.3627C19.498 12.401 18.7354 13.0461 17.9901 13.5577C17.9116 13.6104 17.8699 13.6443 17.8234 13.8324C17.4826 15.1998 16.9321 15.5591 16.4111 15.6475C16.3768 15.6494 16.3461 15.6512 16.3179 15.6531C16.2787 15.4519 16.253 15.2337 16.2456 15.1547C16.2137 14.8763 16.1708 14.6694 16.02 14.6694C15.9391 14.6694 15.8533 14.6694 15.7687 14.818C15.618 14.8293 15.5898 14.9553 15.5934 15.0813C15.6265 15.07 15.6694 15.0757 15.7074 15.0907C15.7589 15.1114 15.7908 15.1979 15.7798 15.2863C15.7663 15.3879 15.7479 15.5252 15.7222 15.6531C15.6927 15.6512 15.6609 15.6494 15.6253 15.6475C15.1043 15.5591 14.5539 15.1998 14.2131 13.8324C14.1665 13.6443 14.1236 13.6123 14.0463 13.5577C13.2998 13.0461 12.5385 12.3991 11.8225 11.3627C11.7907 11.3176 11.7759 11.3157 11.7625 11.3232C11.7465 11.3326 11.9022 12.5646 12.2246 12.8599C12.5054 13.1157 12.7947 13.3508 13.0938 13.5634C13.1183 13.5803 13.1085 13.6518 13.0828 13.6424C12.6414 13.4806 12.1854 13.2493 11.7379 12.8674C11.7024 12.8374 11.6877 12.8449 11.6766 12.858C11.6632 12.875 11.9635 13.9716 12.3055 14.0995C12.5642 14.1954 12.8278 14.2725 13.0963 14.3289C13.122 14.3346 13.1208 14.4079 13.095 14.4098C12.6843 14.4606 12.2491 14.4606 11.8066 14.3195C11.7698 14.3082 11.7563 14.3214 11.7465 14.3402C11.7355 14.3628 12.156 15.2619 12.498 15.2224C12.7248 15.196 12.9528 15.1509 13.1833 15.0907C13.209 15.0832 13.2164 15.1547 13.1919 15.1697C12.8744 15.3672 12.536 15.5346 12.1768 15.608C12.14 15.6155 12.1302 15.6343 12.1229 15.6569C12.1155 15.6832 12.6316 16.3227 12.9491 16.1158C13.1073 16.0105 13.2654 15.8976 13.4223 15.7735C13.4469 15.7547 13.4628 15.8205 13.4407 15.8469C13.1968 16.1384 12.9344 16.413 12.6463 16.6237C12.6132 16.6481 12.6047 16.6707 12.601 16.6952C12.5973 16.7234 13.1674 17.0826 13.442 16.7347C13.5388 16.6105 13.6357 16.4807 13.7313 16.3472C13.7521 16.3171 13.7766 16.3735 13.7582 16.4093C13.6209 16.682 13.4849 16.9303 13.2985 17.1955C13.2703 17.235 13.2654 17.2613 13.2654 17.2858C13.2654 17.3159 13.7178 17.4325 13.9176 17.0676C13.9679 16.9754 14.0316 16.855 14.0929 16.7328C14.1113 16.697 14.1395 16.7441 14.1248 16.7854C14.0549 16.9829 13.9875 17.1503 13.8857 17.3873C13.8649 17.4381 13.8637 17.4645 13.8673 17.4889C13.871 17.5171 14.3173 17.3384 14.4398 17.0789C14.4411 17.077 14.4411 17.0751 14.4423 17.0732C14.4607 17.0356 14.4913 17.0826 14.4754 17.1259C14.4435 17.2087 14.4092 17.2971 14.3687 17.3967C14.3467 17.4475 14.3467 17.4757 14.3504 17.4983C14.354 17.5246 14.7807 17.3366 14.9032 17.0789C14.9547 16.9698 15.0038 16.8607 15.0516 16.7497C14.9842 16.9622 14.918 17.1391 14.8125 17.3967C14.7917 17.4475 14.7905 17.4757 14.7941 17.4983C14.7978 17.5246 15.2244 17.3366 15.347 17.0789C15.3801 17.0074 15.4132 16.9378 15.4439 16.8663C15.385 17.0601 15.3335 17.2275 15.2771 17.3591C15.0908 17.7899 15.6449 17.2952 15.6756 17.2293C15.5947 17.6093 15.4966 18.6457 15.3899 19.304C15.3728 19.4093 15.4132 19.5128 15.4708 19.5128H15.4721C15.5419 19.5128 15.6081 19.5974 15.6719 19.7235C15.846 20.0696 16.1843 20.0696 16.3584 19.7235C16.4221 19.5974 16.4883 19.5128 16.5582 19.5128H16.5595C16.6158 19.5128 16.6563 19.4093 16.6391 19.304C16.5325 18.6457 16.4344 17.6074 16.3535 17.2293C16.3854 17.2989 16.9235 17.8519 16.7568 17.3742C16.7066 17.2293 16.6453 17.0676 16.5852 16.8682C16.6171 16.9397 16.6489 17.0093 16.6833 17.0807C16.8059 17.3384 17.2325 17.5265 17.2362 17.5002C17.2398 17.4776 17.2386 17.4494 17.2178 17.3986C17.1123 17.1409 17.0474 16.9641 16.9787 16.7516C17.0265 16.8607 17.0756 16.9717 17.127 17.0807C17.2496 17.3384 17.6763 17.5265 17.6799 17.5002C17.6836 17.4776 17.6824 17.4494 17.6615 17.3986C17.6199 17.2989 17.5855 17.2105 17.5537 17.1259C17.5377 17.0845 17.5684 17.0356 17.5868 17.0732C17.588 17.0751 17.5892 17.077 17.5892 17.0789C17.7118 17.3366 18.158 17.5152 18.1617 17.4889C18.1654 17.4663 18.1642 17.44 18.1433 17.3873C18.0428 17.1522 17.9742 16.9829 17.9055 16.7854C17.8908 16.7441 17.9202 16.697 17.9374 16.7328C17.9987 16.855 18.0624 16.9754 18.1139 17.0676C18.3137 17.4325 18.7661 17.314 18.7661 17.2858C18.7661 17.2613 18.7624 17.235 18.7342 17.1955C18.5479 16.9322 18.4106 16.6839 18.2745 16.4093C18.2561 16.3735 18.2806 16.319 18.3015 16.3472C18.3971 16.4807 18.4939 16.6105 18.5908 16.7347C18.8654 17.0826 19.4354 16.7252 19.4318 16.6952C19.4281 16.6707 19.4207 16.6481 19.3864 16.6237C19.0983 16.413 18.836 16.1365 18.592 15.8469C18.5699 15.8205 18.5871 15.7547 18.6104 15.7735C18.7673 15.8976 18.9255 16.0124 19.0836 16.1158C19.4011 16.3246 19.9172 15.6832 19.9099 15.6569C19.9037 15.6343 19.8927 15.6155 19.8559 15.608C19.4967 15.5346 19.1584 15.3672 18.8409 15.1697C18.8164 15.1547 18.8249 15.0832 18.8495 15.0907C19.0799 15.1528 19.3079 15.196 19.5347 15.2224C19.8755 15.2619 20.2973 14.3609 20.2862 14.3402C20.2801 14.3214 20.2666 14.3082 20.2298 14.3195Z" fill="url(#paint1_linear_270_19)"/>
<circle cx="16" cy="16" r="16" fill="black"/>
<path d="M23.634 20.0223L21.3988 18.8195C19.9801 16.5075 20.8251 13.5521 23.2868 12.2046L23.3186 12.1874C23.3194 12.1872 23.32 12.1867 23.3211 12.1863L23.3213 12.1861L23.6338 12.0178C23.6992 11.9829 23.7213 11.905 23.6837 11.8441C23.6739 11.8287 23.662 11.8158 23.6474 11.8059C23.605 11.7757 23.5457 11.7707 23.4964 11.7971L23.1836 11.9654C23.183 11.966 23.1826 11.9662 23.182 11.9664L23.1504 11.9835C20.6674 13.2975 17.4992 12.502 16.0609 10.1999L16.0607 7.79392C16.0607 7.72362 15.9999 7.66675 15.9245 7.66675C15.8867 7.66675 15.8526 7.68097 15.8282 7.70434C15.8029 7.72732 15.7872 7.75926 15.7872 7.7947L15.787 10.2007C15.0889 11.3182 13.9673 12.1181 12.6265 12.4531C11.3004 12.7844 9.91726 12.6214 8.72254 11.9966L8.66593 11.9664C8.6653 11.9662 8.66488 11.9656 8.66426 11.9654C8.66405 11.9654 8.66405 11.9654 8.66405 11.9654L8.35132 11.7971C8.28593 11.7619 8.20258 11.7827 8.16498 11.8435C8.16456 11.8439 8.16456 11.8441 8.16456 11.8445C8.16435 11.8447 8.16414 11.8447 8.16414 11.8449C8.12612 11.9058 8.14868 11.9833 8.21386 12.0188L8.58654 12.2194C11.0282 13.5735 11.8628 16.5159 10.4489 18.8195L8.21344 20.0223C8.14827 20.0577 8.12591 20.1356 8.16373 20.1966C8.16373 20.1966 8.16393 20.1966 8.16414 20.197C8.16414 20.197 8.16456 20.197 8.16456 20.1974C8.16978 20.2061 8.17647 20.2137 8.18378 20.2205C8.1867 20.2233 8.18963 20.2262 8.19276 20.2285C8.19757 20.2324 8.20258 20.2357 8.2078 20.2392C8.21198 20.2416 8.21574 20.2441 8.22013 20.2461C8.22493 20.2484 8.22995 20.2502 8.23517 20.2517C8.24436 20.2552 8.25376 20.257 8.26379 20.2585C8.26755 20.2585 8.27089 20.2593 8.27465 20.2597C8.27737 20.2597 8.27988 20.2605 8.28259 20.2605C8.28656 20.2605 8.29053 20.2593 8.2945 20.2593C8.29763 20.2585 8.30056 20.2585 8.30348 20.2581C8.31058 20.257 8.31748 20.2558 8.32479 20.2537C8.32563 20.2533 8.32667 20.2529 8.32771 20.2525C8.33544 20.2502 8.34338 20.2476 8.3509 20.2433L10.586 19.0401C13.4559 19.0508 15.7876 21.23 15.7876 23.9083V24.245C15.7876 24.3153 15.8486 24.3724 15.9238 24.3724C15.9993 24.3724 16.0603 24.3153 16.0603 24.245V23.9083C16.0603 21.23 18.3918 19.0508 21.2619 19.0401L23.497 20.2433C23.5047 20.2474 23.5127 20.2502 23.5208 20.2529C23.5216 20.2529 23.5223 20.2533 23.5227 20.2537C23.53 20.256 23.5373 20.2572 23.5446 20.2581C23.5473 20.2585 23.5498 20.2585 23.5526 20.2593C23.5565 20.2593 23.5607 20.2605 23.5651 20.2605C23.568 20.2605 23.5705 20.2597 23.5732 20.2597C23.5764 20.2593 23.5791 20.2585 23.5822 20.2585C23.5933 20.257 23.6035 20.2546 23.6136 20.2509C23.6184 20.2494 23.6227 20.2482 23.6271 20.2461C23.6315 20.2441 23.6357 20.2412 23.6399 20.2389C23.6449 20.2357 23.6495 20.2324 23.6541 20.2289C23.6576 20.2262 23.6606 20.2233 23.6635 20.2205C23.6704 20.2137 23.6766 20.2065 23.6821 20.1985C23.6825 20.1978 23.6831 20.1974 23.6831 20.197C23.6833 20.197 23.6833 20.197 23.6833 20.1966C23.7218 20.1356 23.6994 20.0575 23.634 20.0223ZM20.9611 18.584L20.1466 18.1454L19.2544 17.6653C18.8558 17.0049 18.7515 16.2397 18.9623 15.5063C19.1727 14.774 19.6722 14.1607 20.3703 13.7745L20.4033 13.7564C20.4038 13.7564 20.404 13.7564 20.404 13.7564L21.8396 12.9834C20.3969 14.4867 20.0058 16.6958 20.9611 18.584ZM18.8343 17.439L16.1985 16.0198L19.2498 14.3775C18.9989 14.6918 18.8107 15.0504 18.6987 15.4404C18.5059 16.1116 18.5558 16.8072 18.8343 17.439ZM16.0617 15.7986L16.0615 12.9614C16.7112 13.7445 17.7075 14.1759 18.7269 14.1759C18.857 14.1759 18.9876 14.1681 19.1178 14.1539L16.0617 15.7986ZM15.7866 15.7986L12.7322 14.1547C12.8617 14.1689 12.9917 14.1767 13.1214 14.1767C14.1406 14.1767 15.1367 13.7451 15.7866 12.9624V15.7986ZM15.6491 16.0206L13.0134 17.4394C13.4669 16.4074 13.2871 15.2432 12.596 14.3771L15.6491 16.0206ZM15.7878 16.2405V19.5315C15.3295 18.5386 14.337 17.8099 13.15 17.6601L15.7878 16.2405ZM16.0605 16.2405L18.6983 17.6601C17.5111 17.81 16.5186 18.5388 16.0605 19.5315V16.2405ZM20.5826 12.8716C20.9557 12.8716 21.3305 12.8356 21.7013 12.7635L20.2325 13.5538C19.5253 13.9237 18.7058 14.0201 17.9212 13.8242C17.1344 13.6277 16.4758 13.1608 16.0617 12.5086L16.0613 10.6728C17.1135 12.0869 18.8268 12.8716 20.5826 12.8716ZM11.2657 12.8755C11.7431 12.8755 12.2238 12.8169 12.6971 12.6987C13.966 12.3816 15.0475 11.6684 15.787 10.6726L15.7866 12.5092C14.9372 13.8464 13.0965 14.313 11.6388 13.5663L10.156 12.768C10.5208 12.8393 10.8922 12.8755 11.2657 12.8755ZM10.01 12.9852L11.5047 13.7897C12.1882 14.1767 12.6779 14.7837 12.8858 15.5063C13.0965 16.2397 12.9923 17.0049 12.5937 17.6653L11.7454 18.1219L10.887 18.584C11.8423 16.6966 11.4514 14.4885 10.01 12.9852ZM11.0236 18.8043L11.9862 18.2858L12.7303 17.8856C14.4193 17.9035 15.7878 19.1891 15.7878 20.7678V22.3167C15.1133 20.3988 13.2562 18.9774 11.0236 18.8043ZM16.0605 22.3167V20.7678C16.0605 19.1893 17.4288 17.9035 19.1178 17.8856L19.9057 18.3102L20.8241 18.8043C18.5919 18.9774 16.7346 20.3988 16.0605 22.3167Z" fill="url(#paint2_linear_270_19)"/>
<path d="M20.2298 14.3195C19.786 14.4606 19.3521 14.4606 18.9414 14.4098C18.9157 14.4061 18.9144 14.3327 18.9402 14.3289C19.2086 14.2725 19.4722 14.1954 19.7309 14.0995C20.0741 13.9716 20.3745 12.8731 20.3598 12.858C20.3475 12.8449 20.3328 12.8374 20.2985 12.8674C19.851 13.2474 19.395 13.4806 18.9537 13.6424C18.9279 13.6518 18.9181 13.5803 18.9426 13.5634C19.2417 13.3508 19.5311 13.1176 19.8118 12.8599C20.1342 12.5646 20.2899 11.3326 20.274 11.3232C20.2605 11.3157 20.2458 11.3176 20.2139 11.3627C19.498 12.401 18.7354 13.0461 17.9901 13.5577C17.9116 13.6104 17.8699 13.6443 17.8234 13.8324C17.4826 15.1998 16.9321 15.5591 16.4111 15.6475C16.3768 15.6494 16.3461 15.6512 16.3179 15.6531C16.2787 15.4519 16.253 15.2337 16.2456 15.1547C16.2137 14.8763 16.1708 14.6694 16.02 14.6694C15.9391 14.6694 15.8533 14.6694 15.7687 14.818C15.618 14.8293 15.5898 14.9553 15.5934 15.0813C15.6265 15.07 15.6694 15.0757 15.7074 15.0907C15.7589 15.1114 15.7908 15.1979 15.7798 15.2863C15.7663 15.3879 15.7479 15.5252 15.7222 15.6531C15.6927 15.6512 15.6609 15.6494 15.6253 15.6475C15.1043 15.5591 14.5539 15.1998 14.2131 13.8324C14.1665 13.6443 14.1236 13.6123 14.0463 13.5577C13.2998 13.0461 12.5385 12.3991 11.8225 11.3627C11.7907 11.3176 11.7759 11.3157 11.7625 11.3232C11.7465 11.3326 11.9022 12.5646 12.2246 12.8599C12.5054 13.1157 12.7947 13.3508 13.0938 13.5634C13.1183 13.5803 13.1085 13.6518 13.0828 13.6424C12.6414 13.4806 12.1854 13.2493 11.7379 12.8674C11.7024 12.8374 11.6877 12.8449 11.6766 12.858C11.6632 12.875 11.9635 13.9716 12.3055 14.0995C12.5642 14.1954 12.8278 14.2725 13.0963 14.3289C13.122 14.3346 13.1208 14.4079 13.095 14.4098C12.6843 14.4606 12.2491 14.4606 11.8066 14.3195C11.7698 14.3082 11.7563 14.3214 11.7465 14.3402C11.7355 14.3628 12.156 15.2619 12.498 15.2224C12.7248 15.196 12.9528 15.1509 13.1833 15.0907C13.209 15.0832 13.2164 15.1547 13.1919 15.1697C12.8744 15.3672 12.536 15.5346 12.1768 15.608C12.14 15.6155 12.1302 15.6343 12.1229 15.6569C12.1155 15.6832 12.6316 16.3227 12.9491 16.1158C13.1073 16.0105 13.2654 15.8976 13.4223 15.7735C13.4469 15.7547 13.4628 15.8205 13.4407 15.8469C13.1968 16.1384 12.9344 16.413 12.6463 16.6237C12.6132 16.6481 12.6047 16.6707 12.601 16.6952C12.5973 16.7234 13.1674 17.0826 13.442 16.7347C13.5388 16.6105 13.6357 16.4807 13.7313 16.3472C13.7521 16.3171 13.7766 16.3735 13.7582 16.4093C13.6209 16.682 13.4849 16.9303 13.2985 17.1955C13.2703 17.235 13.2654 17.2613 13.2654 17.2858C13.2654 17.3159 13.7178 17.4325 13.9176 17.0676C13.9679 16.9754 14.0316 16.855 14.0929 16.7328C14.1113 16.697 14.1395 16.7441 14.1248 16.7854C14.0549 16.9829 13.9875 17.1503 13.8857 17.3873C13.8649 17.4381 13.8637 17.4645 13.8673 17.4889C13.871 17.5171 14.3173 17.3384 14.4398 17.0789C14.4411 17.077 14.4411 17.0751 14.4423 17.0732C14.4607 17.0356 14.4913 17.0826 14.4754 17.1259C14.4435 17.2087 14.4092 17.2971 14.3687 17.3967C14.3467 17.4475 14.3467 17.4757 14.3504 17.4983C14.354 17.5246 14.7807 17.3366 14.9032 17.0789C14.9547 16.9698 15.0038 16.8607 15.0516 16.7497C14.9842 16.9622 14.918 17.1391 14.8125 17.3967C14.7917 17.4475 14.7905 17.4757 14.7941 17.4983C14.7978 17.5246 15.2244 17.3366 15.347 17.0789C15.3801 17.0074 15.4132 16.9378 15.4439 16.8663C15.385 17.0601 15.3335 17.2275 15.2771 17.3591C15.0908 17.7899 15.6449 17.2952 15.6756 17.2293C15.5947 17.6093 15.4966 18.6457 15.3899 19.304C15.3728 19.4093 15.4132 19.5128 15.4708 19.5128H15.4721C15.5419 19.5128 15.6081 19.5974 15.6719 19.7235C15.846 20.0696 16.1843 20.0696 16.3584 19.7235C16.4221 19.5974 16.4883 19.5128 16.5582 19.5128H16.5595C16.6158 19.5128 16.6563 19.4093 16.6391 19.304C16.5325 18.6457 16.4344 17.6074 16.3535 17.2293C16.3854 17.2989 16.9235 17.8519 16.7568 17.3742C16.7066 17.2293 16.6453 17.0676 16.5852 16.8682C16.6171 16.9397 16.6489 17.0093 16.6833 17.0807C16.8059 17.3384 17.2325 17.5265 17.2362 17.5002C17.2398 17.4776 17.2386 17.4494 17.2178 17.3986C17.1123 17.1409 17.0474 16.9641 16.9787 16.7516C17.0265 16.8607 17.0756 16.9717 17.127 17.0807C17.2496 17.3384 17.6763 17.5265 17.6799 17.5002C17.6836 17.4776 17.6824 17.4494 17.6615 17.3986C17.6199 17.2989 17.5855 17.2105 17.5537 17.1259C17.5377 17.0845 17.5684 17.0356 17.5868 17.0732C17.588 17.0751 17.5892 17.077 17.5892 17.0789C17.7118 17.3366 18.158 17.5152 18.1617 17.4889C18.1654 17.4663 18.1642 17.44 18.1433 17.3873C18.0428 17.1522 17.9742 16.9829 17.9055 16.7854C17.8908 16.7441 17.9202 16.697 17.9374 16.7328C17.9987 16.855 18.0624 16.9754 18.1139 17.0676C18.3137 17.4325 18.7661 17.314 18.7661 17.2858C18.7661 17.2613 18.7624 17.235 18.7342 17.1955C18.5479 16.9322 18.4106 16.6839 18.2745 16.4093C18.2561 16.3735 18.2806 16.319 18.3015 16.3472C18.3971 16.4807 18.4939 16.6105 18.5908 16.7347C18.8654 17.0826 19.4354 16.7252 19.4318 16.6952C19.4281 16.6707 19.4207 16.6481 19.3864 16.6237C19.0983 16.413 18.836 16.1365 18.592 15.8469C18.5699 15.8205 18.5871 15.7547 18.6104 15.7735C18.7673 15.8976 18.9255 16.0124 19.0836 16.1158C19.4011 16.3246 19.9172 15.6832 19.9099 15.6569C19.9037 15.6343 19.8927 15.6155 19.8559 15.608C19.4967 15.5346 19.1584 15.3672 18.8409 15.1697C18.8164 15.1547 18.8249 15.0832 18.8495 15.0907C19.0799 15.1528 19.3079 15.196 19.5347 15.2224C19.8755 15.2619 20.2973 14.3609 20.2862 14.3402C20.2801 14.3214 20.2666 14.3082 20.2298 14.3195Z" fill="url(#paint3_linear_270_19)"/>
<path d="M23.0765 8.66929C23.0765 8.25042 23.072 8.0373 23.072 7.67993H24.32C24.4044 7.67993 24.4879 7.69752 24.5651 7.73158C24.9453 7.89922 25.2601 8.21716 25.3117 8.62944C25.3178 8.67833 25.3218 8.72587 25.3228 8.77025C25.3237 8.80966 25.3228 8.8712 25.3228 8.8712V13.577C25.3228 14.058 25.4962 14.5229 25.8111 14.8865L26.8094 16.039L26.0298 17.0449C25.6223 17.5708 25.4011 18.2173 25.4011 18.8826V22.9318C25.4011 22.9804 25.3971 23.029 25.3893 23.0771L25.3578 23.2705C25.2824 23.7327 25.0072 24.1383 24.6056 24.3792L24.5978 24.3839C24.5597 24.4067 24.5191 24.4251 24.4768 24.4387C24.4577 24.4448 24.4378 24.4479 24.4178 24.4479H24.384H23.072L23.0765 23.882V23.4154L23.2103 23.4087H23.8059C23.8776 23.4087 23.9486 23.3945 24.0147 23.3668C24.191 23.2931 24.3057 23.1208 24.3057 22.9298V22.803V18.6328C24.3057 17.9351 24.5489 17.2591 24.9935 16.7214L25.5575 16.039L24.3675 14.5035C24.3275 14.4518 24.3057 14.3882 24.3057 14.3228V9.18399L24.288 8.95999C24.288 8.95999 24.256 8.70399 23.9145 8.66929H23.0765Z" fill="url(#paint4_linear_270_19)"/>
<path d="M8.73599 23.237V24.2466H7.47944C7.38712 24.2466 7.29598 24.2259 7.21271 24.186C6.84625 24.0106 6.54581 23.6962 6.49185 23.2935C6.48452 23.2388 6.47968 23.1855 6.47856 23.1361C6.47766 23.0967 6.47856 23.0351 6.47856 23.0351L6.47856 18.3293C6.47856 17.8483 6.30522 17.3834 5.9903 17.0199L4.99199 15.8673L5.77156 14.8614C6.17913 14.3355 6.40032 13.6891 6.40032 13.0237V8.97456C6.40032 8.92588 6.40425 8.87728 6.41209 8.82924L6.45736 8.55166C6.52404 8.14283 6.77074 7.78211 7.12597 7.56903C7.21378 7.51636 7.31505 7.48805 7.41744 7.48805H8.73599V8.03196V8.4976H8.59105H7.9955C7.9238 8.4976 7.85282 8.51184 7.78668 8.53949C7.61043 8.61318 7.49568 8.78552 7.49568 8.97655V9.10333L7.49568 13.2735C7.49568 13.9713 7.25247 14.6472 6.80791 15.185L6.24384 15.8673L7.43384 17.4028C7.47393 17.4545 7.49568 17.5181 7.49568 17.5836L7.49568 22.7223L7.51339 22.9463C7.51339 22.9463 7.54539 23.2023 7.88689 23.237H8.73599Z" fill="url(#paint5_linear_270_19)"/>
<defs>
<linearGradient id="paint0_linear_270_19" x1="4.57144" y1="7.66675" x2="27.4286" y2="7.66675" gradientUnits="userSpaceOnUse">
<stop stop-color="#8F5E25"/>
<stop offset="0.5" stop-color="#FBF4A1"/>
<stop offset="1" stop-color="#8F5E25"/>
</linearGradient>
<linearGradient id="paint1_linear_270_19" x1="9.98096" y1="11.3333" x2="22.6286" y2="11.3333" gradientUnits="userSpaceOnUse">
<stop stop-color="#8F5E25"/>
<stop offset="0.5" stop-color="#FBF4A1"/>
<stop offset="1" stop-color="#8F5E25"/>
</linearGradient>
<linearGradient id="paint2_linear_270_19" x1="4.57144" y1="7.66675" x2="27.4286" y2="7.66675" gradientUnits="userSpaceOnUse">
<stop stop-color="#8F5E25"/>
<stop offset="0.5" stop-color="#FBF4A1"/>
<stop offset="1" stop-color="#8F5E25"/>
</linearGradient>
<linearGradient id="paint3_linear_270_19" x1="9.98096" y1="11.3333" x2="22.6286" y2="11.3333" gradientUnits="userSpaceOnUse">
<stop stop-color="#8F5E25"/>
<stop offset="0.5" stop-color="#FBF4A1"/>
<stop offset="1" stop-color="#8F5E25"/>
</linearGradient>
<linearGradient id="paint4_linear_270_19" x1="27.6904" y1="7.65974" x2="22.3277" y2="7.65974" gradientUnits="userSpaceOnUse">
<stop stop-color="#8F5E25"/>
<stop offset="0.558483" stop-color="#FBF4A1"/>
<stop offset="1" stop-color="#8F5E25"/>
</linearGradient>
<linearGradient id="paint5_linear_270_19" x1="4.11097" y1="24.2466" x2="9.4737" y2="24.2466" gradientUnits="userSpaceOnUse">
<stop stop-color="#8F5E25"/>
<stop offset="0.558483" stop-color="#FBF4A1"/>
<stop offset="1" stop-color="#8F5E25"/>
</linearGradient>
</defs>
</svg>